#!OML:ASF X:\für Bonn\!DataBase\2005_08_11_Bastian_Final\c3d\Bastian.ASF
:FULLY-SPECIFIED
:DEGREES
109
root -4.805 17.2258 2.37711 899.381 36.4832 -174.061
lowerback 20.9049 -1.26562 -2.14493
upperback 15.6844 0.756376 2.71543
thorax 5.51177 1.16804 4.13093
lowerneck -14.7406 -13.5506 -21.2318
upperneck -9.9242 -14.0087 33.9247
head 4.39418 -5.43433 13.4616
rclavicle 6.53629e-014 -5.94739e-014
rhumerus -23.7856 7.05546 -81.2301
rradius 39.1124
rwrist 1.83472
rhand -13.6496 6.23227
rfingers 7.12502
rthumb 12.4669 -23.3759
lclavicle 6.53629e-014 -5.94739e-014
lhumerus -8.00318 -24.7004 91.1031
lradius 50.1602
lwrist 20.5344
lhand -14.7901 -12.6501
lfingers 7.12502
lthumb 11.3672 17.0218
rfemur -20.4939 -6.81086 25.3514
rtibia 84.2415
rfoot 1.94874 -0.869085
rtoes -21.9327
lfemur -14.6271 -4.29534 -16.6732
ltibia 41.9341
lfoot -13.0672 -11.4341
ltoes 3.67254
110
root -4.77302 17.2313 2.30815 899.207 36.7857 -174.063
lowerback 20.8623 -1.36429 -2.07976
upperback 15.7367 0.639995 2.7742
thorax 5.60324 1.1107 4.17941
lowerneck -14.9178 -13.4722 -21.2717
upperneck -9.70847 -13.9109 33.8328
head 4.44628 -5.37101 13.4495
rclavicle 2.20899e-014 -3.34952e-014
rhumerus -23.7018 6.75956 -81.103
rradius 38.8161
rwrist 1.78375
rhand -13.5087 6.20711
rfingers 7.12502
rthumb 12.6028 -23.3927
lclavicle 2.20899e-014 -3.34952e-014
lhumerus -7.73985 -25.1717 91.1078
lradius 50.7232
lwrist 20.6288
lhand -14.8159 -12.6189
lfingers 7.12502
lthumb 11.3423 17.0544
rfemur -21.466 -6.52122 25.2064
rtibia 84.4426
rfoot 1.25882 -1.15877
rtoes -20.6401
lfemur -13.9861 -4.19482 -16.7756
ltibia 41.7523
lfoot -13.3129 -11.2908
ltoes 3.93381
111
root -4.74018 17.2363 2.23993 899.024 37.0737 -174.064
lowerback 20.8429 -1.45904 -2.01548
upperback 15.7706 0.52529 2.83825
thorax 5.66173 1.05357 4.23254
lowerneck -15.0458 -13.3815 -21.3308
upperneck -9.50037 -13.8006 33.7596
head 4.48921 -5.3062 13.4535
rclavicle -1.11866e-013 4.9398e-014
rhumerus -23.6922 6.45139 -80.979
rradius 38.5241
rwrist 1.8378
rhand -13.4063 6.23157
rfingers 7.12502
rthumb 12.7015 -23.3622
lclavicle -1.11866e-013 4.9398e-014
lhumerus -7.54573 -25.6161 91.1512
lradius 51.2819
lwrist 20.6778
lhand -14.8331 -12.6146
lfingers 7.12502
lthumb 11.3257 17.0596
rfemur -22.395 -6.24996 25.0579
rtibia 84.526
rfoot 0.570368 -1.42194
rtoes -19.5596
lfemur -13.3176 -4.11125 -16.8699
ltibia 41.5514
lfoot -13.5525 -11.1672
ltoes 4.28343
112
root -4.70735 17.2432 2.17158 898.858 37.3512 -174.068
lowerback 20.803 -1.56431 -1.96901
upperback 15.8064 0.39345 2.91445
thorax 5.73515 0.984938 4.31192
lowerneck -15.224 -13.2896 -21.3839
upperneck -9.24609 -13.691 33.6428
head 4.5464 -5.2379 13.437
rclavicle -9.19876e-014 5.12367e-014
rhumerus -23.683 6.25564 -80.8345
rradius 38.2669
rwrist 1.7596
rhand -13.3348 6.24134
rfingers 7.12502
rthumb 12.7705 -23.3481
lclavicle -9.19876e-014 5.12367e-014
lhumerus -7.35388 -25.9819 91.2008
lradius 51.8485
lwrist 20.6617
lhand -14.8236 -12.5628
lfingers 7.12502
lthumb 11.3349 17.1108
rfemur -23.2941 -5.99972 24.9061
rtibia 84.4938
rfoot -0.125556 -1.64649
rtoes -18.577
lfemur -12.6636 -4.05734 -16.967
ltibia 41.3304
lfoot -13.769 -11.0121
ltoes 4.80532
113
root -4.67565 17.2495 2.10421 898.719 37.6513 -174.037
lowerback 20.7797 -1.66892 -1.86341
upperback 15.8166 0.265091 2.96693
thorax 5.76806 0.923273 4.32962
lowerneck -15.2921 -13.1767 -21.4317
upperneck -9.05122 -13.5581 33.5578
head 4.56692 -5.16946 13.4409
rclavicle 1.04561e-013 -9.43233e-014
rhumerus -23.7769 5.9973 -80.7343
rradius 38.0372
rwrist 1.80496
rhand -13.2845 6.29156
rfingers 7.12502
rthumb 12.8189 -23.2948
lclavicle 1.04561e-013 -9.43233e-014
lhumerus -7.2217 -26.3626 91.2383
lradius 52.4023
lwrist 20.664
lhand -14.8654 -12.4948
lfingers 7.12502
lthumb 11.2945 17.1811
rfemur -24.1816 -5.7156 24.7946
rtibia 84.3601
rfoot -0.785988 -1.84644
rtoes -17.7874
lfemur -12.0099 -3.96142 -17.0351
ltibia 41.088
lfoot -13.9734 -10.8808
ltoes 5.20821
114
root -4.64284 17.2564 2.03793 898.592 37.9273 -174.043
lowerback 20.7141 -1.77034 -1.80031
upperback 15.8247 0.131848 3.02558
thorax 5.82154 0.853626 4.37897
lowerneck -15.3632 -13.0665 -21.4921
upperneck -8.84603 -13.4298 33.4848
head 4.5949 -5.10259 13.451
rclavicle 4.27387e-015 2.09718e-014
rhumerus -23.8514 5.81775 -80.6462
rradius 37.8183
rwrist 1.74908
rhand -13.2705 6.31536
rfingers 7.12502
rthumb 12.8324 -23.2702
lclavicle 4.27387e-015 2.09718e-014
lhumerus -7.12211 -26.7338 91.2702
lradius 52.9917
lwrist 20.5641
lhand -14.8922 -12.3468
lfingers 7.12502
lthumb 11.2688 17.3305
rfemur -25.0702 -5.45798 24.6566
rtibia 84.1292
rfoot -1.41564 -2.00464
rtoes -17.1161
lfemur -11.3792 -3.89817 -17.127
ltibia 40.8114
lfoot -14.1589 -10.7391
ltoes 5.62987
115
root -4.61028 17.2638 1.97109 898.484 38.2159 -174.015
lowerback 20.6634 -1.88012 -1.70232
upperback 15.8351 -0.00577314 3.08509
thorax 5.86978 0.785473 4.4099
lowerneck -15.484 -12.9659 -21.556
upperneck -8.61376 -13.3113 33.3931
head 4.63882 -5.03571 13.4509
rclavicle 9.77027e-014 -5.75482e-014
rhumerus -23.9244 5.66634 -80.5593
rradius 37.5882
rwrist 1.68008
rhand -13.3379 6.39352
rfingers 7.12502
rthumb 12.7675 -23.1961
lclavicle 9.77027e-014 -5.75482e-014
lhumerus -6.99034 -27.0264 91.3078
lradius 53.543
lwrist 20.4463
lhand -14.8788 -12.189
lfingers 7.12502
lthumb 11.2816 17.4876
rfemur -25.913 -5.17585 24.553
rtibia 83.8003
rfoot -1.96924 -2.09907
rtoes -16.6795
lfemur -10.7299 -3.77772 -17.1897
ltibia 40.4995
lfoot -14.3572 -10.6269
ltoes 5.80288
116
root -4.57706 17.2745 1.90508 898.37 38.4753 -174.018
lowerback 20.5918 -1.99153 -1.62283
upperback 15.8488 -0.148281 3.1315
thorax 5.933 0.713726 4.43774
lowerneck -15.6026 -12.8616 -21.5796
upperneck -8.39788 -13.1879 33.3149
head 4.67552 -4.96646 13.4495
rclavicle -5.06901e-014 2.87244e-014
rhumerus -24.0185 5.5658 -80.5206
rradius 37.3866
rwrist 1.56224
rhand -13.4341 6.45565
rfingers 7.12502
rthumb 12.6747 -23.1397
lclavicle -5.06901e-014 2.87244e-014
lhumerus -6.82934 -27.2837 91.3357
lradius 54.0213
lwrist 20.2182
lhand -14.8249 -12.0922
lfingers 7.12502
lthumb 11.3337 17.5815
rfemur -26.7217 -4.91816 24.4093
rtibia 83.3644
rfoot -2.44224 -2.09167
rtoes -16.2449
lfemur -10.0789 -3.62333 -17.263
ltibia 40.127
lfoot -14.4587 -10.5899
ltoes 6.2485
